# xmcd CD database file
#
# Track frame offsets:
#	150
#	6585
#	22685
#	46652
#	68907
#	88697
#	100372
#	121645
#	130202
#	152067
#	173827
#	200565
#
# Disc length: 2833 seconds
#
# Revision: 5
# Processed by: cddbd v1.5PL3 Copyright (c) Steve Scherf et al.
# Submitted via: CDex 1.40Release
#
DISCID=930b0f0c
DTITLE=The Gospellers - 二枚目
DYEAR=1996
DGENRE=Acapella
TTITLE0=イントロ'96
TTITLE1=侍ゴスペラーズ
TTITLE2=Atlas
TTITLE3=Two way Street <album version>
TTITLE4=Sparklin'
TTITLE5=Soul Man
TTITLE6=虹
TTITLE7=今日が終わる前に
TTITLE8=カレンダー
TTITLE9=それでも恋はやってくる
TTITLE10=fairwind
TTITLE11=SMILE
EXTD=YEAR: 1996 ID3G: 123
EXTT0=
EXTT1=
EXTT2=
EXTT3=
EXTT4=
EXTT5=
EXTT6=
EXTT7=
EXTT8=
EXTT9=
EXTT10=
EXTT11=
PLAYORDER=
